<svg id="close_24" viewBox="0 0 24 24" fill="none" xmlns="http://www.w3.org/2000/svg"><path d="M18.4698 4.46979C18.7627 4.1769 19.2375 4.1769 19.5304 4.46979C19.8231 4.76269 19.8232 5.23749 19.5304 5.53033L13.0606 12.0001L19.5304 18.4698C19.8231 18.7627 19.8232 19.2375 19.5304 19.5303C19.2375 19.8231 18.7627 19.8231 18.4698 19.5303L12.0001 13.0606L5.53036 19.5303C5.23751 19.8231 4.76271 19.8231 4.46982 19.5303C4.17696 19.2375 4.17698 18.7627 4.46982 18.4698L10.9395 12.0001L4.46982 5.53033C4.17694 5.23746 4.17697 4.76268 4.46982 4.46979C4.76271 4.1769 5.23747 4.17689 5.53036 4.46979L12.0001 10.9395L18.4698 4.46979Z" fill="#FFFFFF"></path></svg>