<svg id="edit_24" viewBox="0 0 24 24" fill="none" xmlns="http://www.w3.org/2000/svg"><path d="M14.358 3.33826C15.432 2.26431 17.1738 2.26432 18.2477 3.33826L19.6618 4.75232C20.7354 5.82618 20.7354 7.56709 19.6618 8.64099L10.2389 18.0638C9.89413 18.4085 9.4634 18.655 8.99184 18.7787L5.41957 19.7162C4.1248 20.0553 2.94444 18.8743 3.28383 17.5795L4.22035 14.0072C4.34408 13.5356 4.59143 13.1049 4.93617 12.7601L14.358 3.33826ZM5.99672 13.8207C5.84002 13.9774 5.72775 14.1737 5.67152 14.3881L4.73402 17.9603C4.686 18.145 4.85495 18.3133 5.03969 18.265L8.61195 17.3285C8.82611 17.2723 9.02174 17.1598 9.17836 17.0033L15.5602 10.6205L12.3776 7.43884L5.99672 13.8207ZM17.1862 4.3988C16.698 3.9108 15.9067 3.9107 15.4186 4.3988L13.4381 6.3783L16.6207 9.55994L18.6012 7.58044C19.089 7.09233 19.0891 6.30094 18.6012 5.81287L17.1862 4.3988Z" fill="#FFFFFF"></path><path d="M4 21.5L20 21.5" stroke="#FFFFFF" stroke-width="1.5" stroke-linecap="round" stroke-linejoin="round"></path></svg>