<svg id="female_16" viewBox="0 0 16 16" fill="none" xmlns="http://www.w3.org/2000/svg"><path d="M8 1.5C10.4853 1.5 12.5 3.51472 12.5 6C12.5 8.31597 10.7505 10.2216 8.50098 10.4707V11.167H11.001C11.2771 11.167 11.501 11.3909 11.501 11.667C11.501 11.9431 11.2771 12.167 11.001 12.167H8.50098V14C8.50098 14.2761 8.27712 14.5 8.00098 14.5C7.72499 14.4998 7.50098 14.276 7.50098 14V12.167H5.00098C4.72499 12.1668 4.50098 11.943 4.50098 11.667C4.50098 11.391 4.72499 11.1672 5.00098 11.167H7.50098V10.4707C5.25076 10.2222 3.5 8.31645 3.5 6C3.5 3.51481 5.51484 1.50014 8 1.5ZM8 2.5C6.06713 2.50014 4.5 4.06709 4.5 6C4.5 7.93291 6.06713 9.49986 8 9.5C9.933 9.5 11.5 7.933 11.5 6C11.5 4.067 9.933 2.5 8 2.5Z" fill="#FF80BF"></path></svg>