<svg id="folder_24" viewBox="0 0 24 24" fill="none" xmlns="http://www.w3.org/2000/svg"><path d="M3 8.0186C3 6.61196 3 5.90864 3.27375 5.37137C3.51455 4.89878 3.89878 4.51455 4.37137 4.27375C4.90864 4 5.61196 4 7.0186 4H9.59749C10.3233 4 10.6861 4 11.0163 4.09907C11.3086 4.18678 11.581 4.33064 11.8182 4.52259C12.0862 4.73939 12.2908 5.03909 12.7 5.63849L12.9875 6.05963C13.0557 6.15953 13.0898 6.20949 13.1344 6.24562C13.174 6.27761 13.2194 6.30159 13.2681 6.3162C13.3231 6.33272 13.3836 6.33272 13.5046 6.33272H16.9814C18.388 6.33272 19.0914 6.33272 19.6286 6.60647C20.1012 6.84727 20.4855 7.2315 20.7262 7.70409C21 8.24136 21 8.94468 21 10.3513V15.9814C21 17.388 21 18.0914 20.7262 18.6286C20.4855 19.1012 20.1012 19.4855 19.6286 19.7262C19.0914 20 18.388 20 16.9814 20H7.0186C5.61196 20 4.90864 20 4.37137 19.7262C3.89878 19.4855 3.51455 19.1012 3.27375 18.6286C3 18.0914 3 17.388 3 15.9814L3 8.0186Z" stroke="#FFFFFF" stroke-width="1.5"></path></svg>