<svg id="image_24" viewBox="0 0 24 24" fill="none" xmlns="http://www.w3.org/2000/svg"><path d="M15.9004 3C16.8679 3 17.6386 2.99906 18.2598 3.0498C18.8898 3.10128 19.432 3.2093 19.9297 3.46289C20.7293 3.87035 21.3797 4.52066 21.7871 5.32031C22.0407 5.81801 22.1487 6.36022 22.2002 6.99023C22.2509 7.61139 22.25 8.38214 22.25 9.34961V14.6504C22.25 15.6179 22.2509 16.3886 22.2002 17.0098C22.1487 17.6398 22.0407 18.182 21.7871 18.6797C21.3797 19.4793 20.7293 20.1297 19.9297 20.5371C19.432 20.7907 18.8898 20.8987 18.2598 20.9502C17.6386 21.0009 16.8679 21 15.9004 21H8.09961C7.13214 21 6.36139 21.0009 5.74023 20.9502C5.11022 20.8987 4.56801 20.7907 4.07031 20.5371C3.27066 20.1297 2.62035 19.4793 2.21289 18.6797C1.9593 18.182 1.85128 17.6398 1.7998 17.0098C1.77443 16.6992 1.76206 16.3512 1.75586 15.96L1.75 14.6504V9.34961C1.75 8.38214 1.74906 7.61139 1.7998 6.99023C1.85128 6.36022 1.9593 5.81801 2.21289 5.32031C2.62035 4.52066 3.27066 3.87035 4.07031 3.46289C4.56801 3.2093 5.11022 3.10128 5.74023 3.0498C6.36139 2.99906 7.13214 3 8.09961 3H15.9004ZM16.4482 12.709C15.7168 11.9775 14.524 12.0016 13.8223 12.7617L10.5439 16.3125C10.2652 16.6142 9.80765 16.6691 9.46582 16.4414L8.62598 15.8809C7.93059 15.4174 7.00898 15.4867 6.39062 16.0488L3.80273 18.4014C4.05328 18.7346 4.37688 19.0091 4.75195 19.2002C5.0029 19.328 5.32527 19.4112 5.8623 19.4551C6.40823 19.4997 7.10738 19.5 8.09961 19.5H15.9004C16.8926 19.5 17.5918 19.4997 18.1377 19.4551C18.6747 19.4112 18.9971 19.328 19.248 19.2002C19.7655 18.9365 20.1865 18.5155 20.4502 17.998C20.5723 17.7583 20.652 17.4531 20.6973 16.958L16.4482 12.709ZM8.09961 4.5C7.10738 4.5 6.40823 4.50032 5.8623 4.54492C5.32527 4.5888 5.0029 4.67201 4.75195 4.7998C4.23451 5.06346 3.81346 5.48451 3.5498 6.00195C3.42201 6.2529 3.3388 6.57527 3.29492 7.1123C3.25032 7.65823 3.25 8.35738 3.25 9.34961V14.6504L3.25586 15.9365C3.26124 16.2814 3.27229 16.577 3.29199 16.8379L5.38184 14.9385C6.50949 13.9135 8.19001 13.7877 9.45801 14.6328L9.82617 14.8779L12.7197 11.7441C13.9993 10.358 16.1749 10.3145 17.5088 11.6484L20.748 14.8877C20.7481 14.8105 20.75 14.7314 20.75 14.6504V9.34961C20.75 8.35738 20.7497 7.65823 20.7051 7.1123C20.6612 6.57527 20.578 6.2529 20.4502 6.00195C20.1865 5.48451 19.7655 5.06346 19.248 4.7998C18.9971 4.67201 18.6747 4.5888 18.1377 4.54492C17.5918 4.50032 16.8926 4.5 15.9004 4.5H8.09961ZM8.5 6.25C10.0188 6.25 11.25 7.48122 11.25 9C11.25 10.5188 10.0188 11.75 8.5 11.75C6.98122 11.75 5.75 10.5188 5.75 9C5.75 7.48122 6.98122 6.25 8.5 6.25ZM8.5 7.75C7.80965 7.75 7.25 8.30965 7.25 9C7.25 9.69035 7.80965 10.25 8.5 10.25C9.19036 10.25 9.75 9.69036 9.75 9C9.75 8.30965 9.19036 7.75 8.5 7.75Z" fill="#FFFFFF"></path></svg>