<svg id="male_16" viewBox="0 0 16 16" fill="none" xmlns="http://www.w3.org/2000/svg"><path d="M13.7646 1.84277C13.9923 1.88945 14.164 2.09143 14.164 2.33301V7C14.1638 7.27586 13.9398 7.49978 13.664 7.5C13.3879 7.5 13.1641 7.27599 13.164 7V3.54004L9.84464 6.8584C10.4607 7.62833 10.83 8.60421 10.83 9.66699C10.83 12.1523 8.81527 14.167 6.32999 14.167C3.84481 14.1669 1.82999 12.1522 1.82999 9.66699C1.82999 7.18179 3.84481 5.16711 6.32999 5.16699C7.39216 5.16699 8.36788 5.5359 9.1376 6.15137L12.4569 2.83301H8.99698C8.72084 2.83301 8.49698 2.60915 8.49698 2.33301C8.49698 2.05687 8.72084 1.83301 8.99698 1.83301H13.664L13.7646 1.84277ZM6.32999 6.16699C4.39709 6.16711 2.82999 7.73407 2.82999 9.66699C2.82999 11.5999 4.39709 13.1669 6.32999 13.167C8.26298 13.167 9.82999 11.6 9.82999 9.66699C9.82999 7.734 8.26298 6.16699 6.32999 6.16699Z" fill="#0099FF"></path></svg>