<svg id="microphone_off_24" viewBox="0 0 24 24" fill="none" xmlns="http://www.w3.org/2000/svg"><path d="M3.22119 6.42737L19.2212 22.4274" stroke="#FFFFFF" stroke-width="1.5" stroke-linecap="round"></path><path d="M5.75 11.7842V12C5.75 15.4518 8.54822 18.25 12 18.25C12.0703 18.25 12.1402 18.2464 12.21 18.2441L13.5557 19.5898C13.2916 19.6437 13.0231 19.6867 12.75 19.7129V21.5C12.75 21.9142 12.4142 22.25 12 22.25C11.5858 22.25 11.25 21.9142 11.25 21.5V19.7129C7.32176 19.3356 4.25 16.0272 4.25 12V11.5C4.25 11.1709 4.46292 10.894 4.75781 10.793L5.75 11.7842ZM19 10.75C19.4142 10.75 19.75 11.0858 19.75 11.5V12C19.75 14.2364 18.8014 16.2498 17.2861 17.6641L16.2256 16.6035C17.4695 15.4611 18.25 13.822 18.25 12V11.5C18.25 11.0858 18.5858 10.75 19 10.75ZM12 1.82129C14.7809 1.82152 17.035 4.07653 17.0352 6.85742V12C17.0351 13.4866 16.3907 14.8225 15.3662 15.7441L14.3027 14.6807C15.0568 14.0324 15.5351 13.0725 15.5352 12V6.85742C15.535 4.90495 13.9524 3.32152 12 3.32129C10.0475 3.32149 8.464 4.90494 8.46387 6.85742V8.8418L6.96387 7.3418V6.85742C6.964 4.07651 9.2191 1.82149 12 1.82129Z" fill="#FFFFFF"></path></svg>