<svg id="microphone_on_24" viewBox="0 0 24 24" fill="none" xmlns="http://www.w3.org/2000/svg"><path d="M19 10.75C19.4142 10.75 19.75 11.0858 19.75 11.5V12C19.75 16.0272 16.6782 19.3356 12.75 19.7129V21.5C12.75 21.9142 12.4142 22.25 12 22.25C11.5858 22.25 11.25 21.9142 11.25 21.5V19.7129C7.32176 19.3356 4.25 16.0272 4.25 12V11.5C4.25 11.0858 4.58579 10.75 5 10.75C5.41421 10.75 5.75 11.0858 5.75 11.5V12C5.75 15.4518 8.54822 18.25 12 18.25C15.4518 18.25 18.25 15.4518 18.25 12V11.5C18.25 11.0858 18.5858 10.75 19 10.75ZM12 1.82129C14.7809 1.82152 17.035 4.07653 17.0352 6.85742V12C17.0351 14.7809 14.7809 17.0349 12 17.0352C9.21907 17.035 6.96394 14.781 6.96387 12V6.85742C6.964 4.07651 9.2191 1.82149 12 1.82129ZM12 3.32129C10.0475 3.32149 8.464 4.90494 8.46387 6.85742V12C8.46394 13.9525 10.0475 15.535 12 15.5352C13.9525 15.5349 15.5351 13.9525 15.5352 12V6.85742C15.535 4.90495 13.9524 3.32152 12 3.32129Z" fill="#FFFFFF"></path></svg>