<svg id="nav_contact_active_24" viewBox="0 0 24 24" fill="none" xmlns="http://www.w3.org/2000/svg"><path d="M12 11.25C14.3472 11.25 16.25 9.34721 16.25 7C16.25 4.65279 14.3472 2.75 12 2.75H8.04568C7.91151 2.75 8.07822 2.91718 8.15063 3.03013C8.37704 3.38333 8.85789 4.03137 8.42856 4.6953C7.99923 5.35924 7.75 6.15051 7.75 7C7.75 9.34721 9.65279 11.25 12 11.25Z" fill="#0099FF" stroke="#0099FF" stroke-width="1.5" stroke-linecap="square"></path><path d="M4.33333 20.25C4.01117 20.25 3.75 19.9888 3.75 19.6667C3.75 16.399 6.39898 13.75 9.66667 13.75H9.67578H9.6849H9.69401H9.70312H9.71224H9.72135H9.73047H9.73958H9.7487H9.75781H9.76693H9.77604H9.78516H9.79427H9.80339H9.8125H9.82161H9.83073H9.83984H9.84896H9.85807H9.86719H9.8763H9.88542H9.89453H9.90365H9.91276H9.92188H9.93099H9.9401H9.94922H9.95833H9.96745H9.97656H9.98568H9.99479H10.0039H10.013H10.0221H10.0312H10.0404H10.0495H10.0586H10.0677H10.0768H10.0859H10.0951H10.1042H10.1133H10.1224H10.1315H10.1406H10.1497H10.1589H10.168H10.1771H10.1862H10.1953H10.2044H10.2135H10.2227H10.2318H10.2409H10.25H10.2591H10.2682H10.2773H10.2865H10.2956H10.3047H10.3138H10.3229H10.332H10.3411H10.3503H10.3594H10.3685H10.3776H10.3867H10.3958H10.4049H10.4141H10.4232H10.4323H10.4414H10.4505H10.4596H10.4688H10.4779H10.487H10.4961H10.5052H10.5143H10.5234H10.5326H10.5417H10.5508H10.5599H10.569H10.5781H10.5872H10.5964H10.6055H10.6146H10.6237H10.6328H10.6419H10.651H10.6602H10.6693H10.6784H10.6875H10.6966H10.7057H10.7148H10.724H10.7331H10.7422H10.7513H10.7604H10.7695H10.7786H10.7878H10.7969H10.806H10.8151H10.8242H10.8333H10.8424H10.8516H10.8607H10.8698H10.8789H10.888H10.8971H10.9062H10.9154H10.9245H10.9336H10.9427H10.9518H10.9609H10.9701H10.9792H10.9883H10.9974H11.0065H11.0156H11.0247H11.0339H11.043H11.0521H11.0612H11.0703H11.0794H11.0885H11.0977H11.1068H11.1159H11.125H11.1341H11.1432H11.1523H11.1615H11.1706H11.1797H11.1888H11.1979H11.207H11.2161H11.2253H11.2344H11.2435H11.2526H11.2617H11.2708H11.2799H11.2891H11.2982H11.3073H11.3164H11.3255H11.3346H11.3438H11.3529H11.362H11.3711H11.3802H11.3893H11.3984H11.4076H11.4167H11.4258H11.4349H11.444H11.4531H11.4622H11.4714H11.4805H11.4896H11.4987H11.5078H11.5169H11.526H11.5352H11.5443H11.5534H11.5625H11.5716H11.5807H11.5898H11.599H11.6081H11.6172H11.6263H11.6354H11.6445H11.6536H11.6628H11.6719H11.681H11.6901H11.6992H11.7083H11.7174H11.7266H11.7357H11.7448H11.7539H11.763H11.7721H11.7812H11.7904H11.7995H11.8086H11.8177H11.8268H11.8359H11.8451H11.8542H11.8633H11.8724H11.8815H11.8906H11.8997H11.9089H11.918H11.9271H11.9362H11.9453H11.9544H11.9635H11.9727H11.9818H11.9909H12H12.0091H12.0182H12.0273H12.0365H12.0456H12.0547H12.0638H12.0729H12.082H12.0911H12.1003H12.1094H12.1185H12.1276H12.1367H12.1458H12.1549H12.1641H12.1732H12.1823H12.1914H12.2005H12.2096H12.2188H12.2279H12.237H12.2461H12.2552H12.2643H12.2734H12.2826H12.2917H12.3008H12.3099H12.319H12.3281H12.3372H12.3464H12.3555H12.3646H12.3737H12.3828H12.3919H12.401H12.4102H12.4193H12.4284H12.4375H12.4466H12.4557H12.4648H12.474H12.4831H12.4922H12.5013H12.5104H12.5195H12.5286H12.5378H12.5469H12.556H12.5651H12.5742H12.5833H12.5924H12.6016H12.6107H12.6198H12.6289H12.638H12.6471H12.6562H12.6654H12.6745H12.6836H12.6927H12.7018H12.7109H12.7201H12.7292H12.7383H12.7474H12.7565H12.7656H12.7747H12.7839H12.793H12.8021H12.8112H12.8203H12.8294H12.8385H12.8477H12.8568H12.8659H12.875H12.8841H12.8932H12.9023H12.9115H12.9206H12.9297H12.9388H12.9479H12.957H12.9661H12.9753H12.9844H12.9935H13.0026H13.0117H13.0208H13.0299H13.0391H13.0482H13.0573H13.0664H13.0755H13.0846H13.0938H13.1029H13.112H13.1211H13.1302H13.1393H13.1484H13.1576H13.1667H13.1758H13.1849H13.194H13.2031H13.2122H13.2214H13.2305H13.2396H13.2487H13.2578H13.2669H13.276H13.2852H13.2943H13.3034H13.3125H13.3216H13.3307H13.3398H13.349H13.3581H13.3672H13.3763H13.3854H13.3945H13.4036H13.4128H13.4219H13.431H13.4401H13.4492H13.4583H13.4674H13.4766H13.4857H13.4948H13.5039H13.513H13.5221H13.5312H13.5404H13.5495H13.5586H13.5677H13.5768H13.5859H13.5951H13.6042H13.6133H13.6224H13.6315H13.6406H13.6497H13.6589H13.668H13.6771H13.6862H13.6953H13.7044H13.7135H13.7227H13.7318H13.7409H13.75H13.7591H13.7682H13.7773H13.7865H13.7956H13.8047H13.8138H13.8229H13.832H13.8411H13.8503H13.8594H13.8685H13.8776H13.8867H13.8958H13.9049H13.9141H13.9232H13.9323H13.9414H13.9505H13.9596H13.9688H13.9779H13.987H13.9961H14.0052H14.0143H14.0234H14.0326H14.0417H14.0508H14.0599H14.069H14.0781H14.0872H14.0964H14.1055H14.1146H14.1237H14.1328H14.1419H14.151H14.1602H14.1693H14.1784H14.1875H14.1966H14.2057H14.2148H14.224H14.2331H14.2422H14.2513H14.2604H14.2695H14.2786H14.2878H14.2969H14.306H14.3151H14.3242H14.3333C17.601 13.75 20.25 16.399 20.25 19.6667C20.25 19.9888 19.9888 20.25 19.6667 20.25H4.33333Z" fill="#0099FF" stroke="#0099FF" stroke-width="1.5" stroke-linecap="square"></path></svg>