<svg id="nav_message_normal_24" viewBox="0 0 24 24" fill="none" xmlns="http://www.w3.org/2000/svg"><path d="M7.49526 17.8896L13.9329 20.9077C14.5368 21.1908 15.1686 20.7497 15.2254 20.1654C15.2387 20.0279 15.1621 19.7368 15.1621 19.7368V19.7368C14.9143 19.0616 15.3509 18.3317 16.0263 18.0845C18.9229 17.0243 21 14.1453 21 10.7599C21 6.47421 17.6713 3 13.5652 3H10.4348C6.32867 3 3 6.47421 3 10.7599C3 13.5914 4.45303 16.0687 6.62331 17.4238M7.49526 17.8896L6.62331 17.4238M7.49526 17.8896C7.44519 17.8671 7.3954 17.844 7.3459 17.8204C7.22097 17.7607 7.0979 17.6976 6.9768 17.6311L6.9665 17.6254L6.96537 17.6248C6.8495 17.5609 6.73545 17.4938 6.62331 17.4238" stroke="#FFFFFF" stroke-width="1.5"></path></svg>