<svg id="nav_message_active_24" viewBox="0 0 24 24" fill="none" xmlns="http://www.w3.org/2000/svg"><path fill-rule="evenodd" clip-rule="evenodd" d="M6.51349 17.8599L6.49901 17.8528L6.48476 17.8453C3.81969 16.4372 2 13.6356 2 10.4074C2 5.76412 5.76412 2 10.4074 2L13.667 2.00001C18.3001 2.00001 22.1154 5.735 22.1154 10.3884C22.1154 14.3058 19.2341 17.5305 15.6654 18.4941L15.9412 20.2061L15.9418 20.2098C15.9546 20.2908 15.9716 20.4093 15.9739 20.5308C15.9756 20.6167 15.9795 20.899 15.8068 21.1758C15.7047 21.3394 15.5508 21.485 15.3479 21.5751C15.1564 21.6602 14.9765 21.6715 14.8478 21.6636C14.6207 21.6497 14.4332 21.5676 14.3358 21.5213L7.06466 18.1236C6.9945 18.0922 6.85411 18.0246 6.75361 17.9761C6.69119 17.946 6.63122 17.917 6.58693 17.8955L6.51349 17.8599Z" fill="#0099FF"></path><path d="M8.93346 11.1716C9.60002 11.1716 10.1404 10.6313 10.1404 9.96471C10.1404 9.29816 9.60002 8.75781 8.93346 8.75781C8.26691 8.75781 7.72656 9.29816 7.72656 9.96471C7.72656 10.6313 8.26691 11.1716 8.93346 11.1716Z" fill="white"></path><path d="M15.2147 11.1716C15.8813 11.1716 16.4216 10.6313 16.4216 9.96471C16.4216 9.29816 15.8813 8.75781 15.2147 8.75781C14.5482 8.75781 14.0078 9.29816 14.0078 9.96471C14.0078 10.6313 14.5482 11.1716 15.2147 11.1716Z" fill="white"></path></svg>