<svg id="screenshot_24" viewBox="0 0 24 24" fill="none" xmlns="http://www.w3.org/2000/svg"><path d="M17.8174 3.25C18.3977 3.83046 18.3978 4.77208 17.8174 5.35254L13.0537 10.1152L15.917 12.9785C16.334 12.8311 16.7825 12.75 17.25 12.75C19.4591 12.75 21.25 14.5409 21.25 16.75C21.25 18.9591 19.4591 20.75 17.25 20.75C15.0409 20.75 13.25 18.9591 13.25 16.75C13.25 15.5604 13.7695 14.4925 14.5938 13.7598L12.002 11.168L9.40723 13.7617C10.2306 14.4944 10.75 15.5612 10.75 16.75C10.75 18.9591 8.95914 20.75 6.75 20.75C4.54086 20.75 2.75 18.9591 2.75 16.75C2.75 14.5409 4.54086 12.75 6.75 12.75C7.21892 12.75 7.66881 12.8312 8.08691 12.9795L10.9502 10.1162L6.18848 5.35449C5.60733 4.77335 5.60733 3.83115 6.18848 3.25L12.0029 9.06445L17.8174 3.25ZM6.75 14.25C5.36929 14.25 4.25 15.3693 4.25 16.75C4.25 18.1307 5.36929 19.25 6.75 19.25C8.13071 19.25 9.25 18.1307 9.25 16.75C9.25 15.3693 8.13071 14.25 6.75 14.25ZM17.25 14.25C15.8693 14.25 14.75 15.3693 14.75 16.75C14.75 18.1307 15.8693 19.25 17.25 19.25C18.6307 19.25 19.75 18.1307 19.75 16.75C19.75 15.3693 18.6307 14.25 17.25 14.25Z" fill="#FFFFFF"></path></svg>