<svg id="search_24" viewBox="0 0 24 24" fill="none" xmlns="http://www.w3.org/2000/svg"><path d="M10.5 2.25C15.0563 2.25 18.75 5.94365 18.75 10.5C18.75 12.7628 17.8385 14.8122 16.3633 16.3027L20.0303 19.9697C20.3232 20.2626 20.3232 20.7374 20.0303 21.0303C19.7374 21.3232 19.2626 21.3232 18.9697 21.0303L15.21 17.2705C13.8741 18.2015 12.2517 18.75 10.5 18.75C5.94365 18.75 2.25 15.0563 2.25 10.5C2.25 5.94365 5.94365 2.25 10.5 2.25ZM10.5 3.75C6.77208 3.75 3.75 6.77208 3.75 10.5C3.75 14.2279 6.77208 17.25 10.5 17.25C14.2279 17.25 17.25 14.2279 17.25 10.5C17.25 6.77208 14.2279 3.75 10.5 3.75Z" fill="#FFFFFF"></path></svg>